<svg width="1855" height="1057" viewBox="0 0 1855 1057" fill="none" xmlns="http://www.w3.org/2000/svg">
<rect y="11.1006" width="1856" height="1045.53" fill="#006543"/>
<line x1="935.457" y1="14.8867" x2="935.457" y2="1044.05" stroke="#FFB901" stroke-width="5"/>
<line x1="1092.1" y1="14.8867" x2="1092.1" y2="1044.05" stroke="#FFB901" stroke-width="3"/>
<line x1="1246.77" y1="14.8867" x2="1246.77" y2="1044.05" stroke="#FFB901" stroke-width="3"/>
<line x1="1403.41" y1="14.8867" x2="1403.41" y2="1044.05" stroke="#FFB901" stroke-width="3"/>
<line x1="1558.08" y1="14.8867" x2="1558.08" y2="1044.05" stroke="#FFB901" stroke-width="3"/>
<line x1="1713.74" y1="14.8867" x2="1713.74" y2="1044.05" stroke="#FFB901" stroke-width="3"/>
<line x1="935.932" y1="118.585" x2="1856" y2="118.585" stroke="#FFB901" stroke-width="3"/>
<line x1="935.932" y1="235.693" x2="1856" y2="235.693" stroke="#FFB901" stroke-width="3"/>
<line x1="935.932" y1="351.808" x2="1856" y2="351.808" stroke="#FFB901" stroke-width="3"/>
<line x1="935.932" y1="468.916" x2="1856" y2="468.916" stroke="#FFB901" stroke-width="3"/>
<line x1="935.932" y1="585.031" x2="1856" y2="585.031" stroke="#FFB901" stroke-width="3"/>
<line x1="935.932" y1="702.139" x2="1856" y2="702.139" stroke="#FFB901" stroke-width="3"/>
<line x1="935.932" y1="818.254" x2="1856" y2="818.254" stroke="#FFB901" stroke-width="3"/>
<line x1="935.932" y1="935.362" x2="1856" y2="935.362" stroke="#FFB901" stroke-width="3"/>
<line y1="-2" x2="281.738" y2="-2" transform="matrix(-0.666788 0.745247 -0.747624 -0.664122 930.974 0)" stroke="#FFB901" stroke-width="4"/>
<line y1="-2" x2="203.513" y2="-2" transform="matrix(-0.52127 0.853392 -0.85293 -0.522025 776.308 3.96973)" stroke="#FFB901" stroke-width="4"/>
<line y1="-2" x2="187.44" y2="-2" transform="matrix(-0.28563 0.95834 -0.958184 -0.286151 618.667 7.93945)" stroke="#FFB901" stroke-width="4"/>
<line x1="468.974" y1="12.9016" x2="468.974" y2="169.707" stroke="#FFB901" stroke-width="4"/>
<line y1="-2" x2="154.747" y2="-2" transform="matrix(0.294719 0.955584 -0.955419 0.295255 314.291 12.9016)" stroke="#FFB901" stroke-width="4"/>
<line y1="-2" x2="194.154" y2="-2" transform="matrix(0.520866 0.853638 -0.853178 0.52162 162.598 12.9016)" stroke="#FFB901" stroke-width="4"/>
<line y1="-2" x2="299.08" y2="-2" transform="matrix(0.676261 0.736662 -0.735992 0.67699 1.98291 4.9624)" stroke="#FFB901" stroke-width="4"/>
<line y1="-2" x2="281.674" y2="-2" transform="matrix(0.76733 0.641252 -0.640502 0.767957 0.991455 121.077)" stroke="#FFB901" stroke-width="4"/>
<line y1="-2" x2="277.423" y2="-2" transform="matrix(0.850564 0.525871 -0.525115 0.851031 6.94017 240.17)" stroke="#FFB901" stroke-width="4"/>
<line y1="-2" x2="277.613" y2="-2" transform="matrix(0.939266 0.343191 -0.342589 0.939485 7.93162 356.286)" stroke="#FFB901" stroke-width="4"/>
<line y1="-2" x2="315.444" y2="-2" transform="matrix(0.993201 0.116408 -0.11618 0.993228 7.93162 471.408)" stroke="#FFB901" stroke-width="4"/>
<line y1="-2" x2="372.012" y2="-2" transform="matrix(0.991536 -0.129833 0.131356 0.991335 0 588.516)" stroke="#FFB901" stroke-width="4"/>
<line y1="-2" x2="302.21" y2="-2" transform="matrix(0.934993 -0.354666 0.35405 0.935227 7.93162 702.646)" stroke="#FFB901" stroke-width="4"/>
<line y1="-2" x2="365.199" y2="-2" transform="matrix(0.849071 -0.528278 0.527522 0.849542 3.96581 819.754)" stroke="#FFB901" stroke-width="4"/>
<line y1="-2" x2="361.384" y2="-2" transform="matrix(0.75446 -0.656346 0.655604 0.755105 11.8974 929.915)" stroke="#FFB901" stroke-width="4"/>
<line y1="-2" x2="420.806" y2="-2" transform="matrix(0.666771 -0.745262 0.744603 0.667507 11.8974 1044.05)" stroke="#FFB901" stroke-width="4"/>
<line y1="-2" x2="329.611" y2="-2" transform="matrix(0.523384 -0.852097 0.851633 0.524139 158.632 1050)" stroke="#FFB901" stroke-width="4"/>
<line y1="-2" x2="291.33" y2="-2" transform="matrix(0.289271 -0.957247 0.957088 0.289798 315.282 1048.02)" stroke="#FFB901" stroke-width="4"/>
<line x1="465.966" y1="1044.05" x2="465.966" y2="845.558" stroke="#FFB901" stroke-width="4"/>
<line y1="-2" x2="204.946" y2="-2" transform="matrix(-0.299933 -0.95396 0.953789 -0.300476 622.633 1046.03)" stroke="#FFB901" stroke-width="4"/>
<line y1="-2" x2="263.137" y2="-2" transform="matrix(-0.535031 -0.844832 0.844351 -0.53579 777.299 1046.03)" stroke="#FFB901" stroke-width="4"/>
<line y1="-2" x2="345.338" y2="-2" transform="matrix(-0.680419 -0.732824 0.732149 -0.681145 930.974 1046.03)" stroke="#FFB901" stroke-width="4"/>
<line y1="-2" x2="304.467" y2="-2" transform="matrix(-0.755474 -0.655178 0.654435 -0.756118 935.932 936.862)" stroke="#FFB901" stroke-width="4"/>
<line y1="-2" x2="284.2" y2="-2" transform="matrix(-0.858191 -0.513331 0.51258 -0.858639 935.932 817.769)" stroke="#FFB901" stroke-width="4"/>
<line y1="-2" x2="289.477" y2="-2" transform="matrix(-0.941869 -0.335981 0.335389 -0.94208 935.932 700.662)" stroke="#FFB901" stroke-width="4"/>
<line y1="-2" x2="312.608" y2="-2" transform="matrix(-0.992696 -0.120639 0.120403 -0.992725 935.932 584.546)" stroke="#FFB901" stroke-width="4"/>
<line y1="-2" x2="322.226" y2="-2" transform="matrix(-0.993834 0.110878 -0.110661 -0.993858 935.932 467.438)" stroke="#FFB901" stroke-width="4"/>
<line y1="-2" x2="320.563" y2="-2" transform="matrix(-0.940226 0.340552 -0.339954 -0.940442 935.932 350.331)" stroke="#FFB901" stroke-width="4"/>
<line y1="-2" x2="279.957" y2="-2" transform="matrix(-0.853489 0.52111 -0.520356 -0.853949 932.957 233.223)" stroke="#FFB901" stroke-width="4"/>
<line y1="-2" x2="333.509" y2="-2" transform="matrix(-0.761034 0.648712 -0.647965 -0.76167 932.957 117.108)" stroke="#FFB901" stroke-width="4"/>
<rect x="193.342" y="211.397" width="492.735" height="629.191" stroke="#FFB901" stroke-width="2"/>
</svg>
