<svg width="242" height="48" viewBox="0 0 242 48" fill="none" xmlns="http://www.w3.org/2000/svg">
<path d="M10.5611 12.926L19.96 18.7623L29.3656 12.926V18.4509L19.96 24.2944L15.2606 21.3835V38.9141L19.96 41.8322L24.6391 38.9286L24.7135 32.9837L19.96 35.938V30.3335L29.3656 24.4899V41.5281L19.96 47.3644L10.5611 41.5281V12.926Z" fill="#FFB901" stroke="#FF3900" stroke-width="0.5" stroke-miterlimit="10" stroke-linecap="square"/>
<path d="M10.5611 12.926L1 6.98834V35.5832L10.5611 41.5281V35.996L5.71971 32.9909V15.8441L10.5611 18.6537V12.926Z" fill="#FFB901" stroke="#FF3900" stroke-width="0.5" stroke-miterlimit="10" stroke-linecap="square"/>
<path d="M29.3656 12.926L38.92 6.98834V12.5205L36.7765 13.8529V31.3907L38.92 30.0583V35.5832L29.3656 41.5281V35.9887L32.0703 34.3088V16.7782L29.3656 18.4509V12.926Z" fill="#FFB901" stroke="#FF3900" stroke-width="0.5" stroke-miterlimit="10"/>
<path d="M20.1223 0.999999L10.5611 6.93766L19.96 12.7739L29.3589 6.93766L20.1223 0.999999Z" fill="#FFB901" stroke="#FF3900" stroke-width="0.5" stroke-miterlimit="10" stroke-linecap="square"/>
<path d="M53 33V30H50V27H53V24H65V21H53V18H68V21H71V33H53ZM56 30H65V27H56V30ZM83 21H86V24H83V33H77V18H83V21ZM95 18V21H86V18H95ZM101 33V30H98V21H101V18H119V21H104V30H119V33H101ZM122 33V12H128V18H140V21H143V33H137V21H128V33H122ZM155 15V12H161V15H155ZM149 33V30H155V21H152V18H161V30H167V33H149ZM173 33V30H170V21H173V18H191V21H176V30H191V33H173ZM197 36V33H209V30H197V27H194V21H197V18H215V33H212V36H197ZM200 27H209V21H200V27ZM227 15V12H233V15H227ZM221 33V30H227V21H224V18H233V30H239V33H221Z" fill="#FFB901"/>
</svg>
