<svg width="1855" height="1291" viewBox="0 0 1855 1291" fill="none" xmlns="http://www.w3.org/2000/svg">
<rect y="114" width="1856" height="1039" fill="#FF5601"/>
<line x1="78.5" y1="113.802" x2="78.5" y2="1151.8" stroke="#006543" stroke-width="5"/>
<line x1="139.5" y1="113.802" x2="139.5" y2="1151.8" stroke="#006543" stroke-width="5"/>
<line x1="218.5" y1="113.802" x2="218.5" y2="1126.8" stroke="#006543" stroke-width="5"/>
<line x1="308.5" y1="113.802" x2="308.5" y2="1088.8" stroke="#006543" stroke-width="5"/>
<line x1="409.5" y1="113.802" x2="409.5" y2="1064.8" stroke="#006543" stroke-width="5"/>
<line x1="514.5" y1="113.802" x2="514.5" y2="1058.8" stroke="#006543" stroke-width="5"/>
<line x1="619.5" y1="113.802" x2="619.5" y2="1065.8" stroke="#006543" stroke-width="5"/>
<line x1="719.5" y1="113.802" x2="719.5" y2="1088.8" stroke="#006543" stroke-width="5"/>
<line x1="810.5" y1="113.802" x2="810.5" y2="1127.8" stroke="#006543" stroke-width="5"/>
<line x1="888.5" y1="111.802" x2="888.5" y2="1147.8" stroke="#006543" stroke-width="5"/>
<line x1="949.5" y1="111.802" x2="949.5" y2="1147.8" stroke="#006543" stroke-width="5"/>
<line x1="1011.5" y1="111.802" x2="1011.5" y2="1147.8" stroke="#006543" stroke-width="5"/>
<line x1="1089.5" y1="111.802" x2="1089.5" y2="1147.8" stroke="#006543" stroke-width="5"/>
<line x1="1181.5" y1="108.802" x2="1181.5" y2="1147.8" stroke="#006543" stroke-width="5"/>
<line x1="1281.5" y1="112.802" x2="1281.5" y2="1147.8" stroke="#006543" stroke-width="5"/>
<line x1="1385.5" y1="113.802" x2="1385.5" y2="1147.8" stroke="#006543" stroke-width="5"/>
<line x1="1491.5" y1="113.802" x2="1491.5" y2="1147.8" stroke="#006543" stroke-width="5"/>
<line x1="1591.5" y1="113.802" x2="1591.5" y2="1147.8" stroke="#006543" stroke-width="5"/>
<line x1="1682.5" y1="111.802" x2="1682.5" y2="1147.8" stroke="#006543" stroke-width="5"/>
<line x1="1759.5" y1="107.802" x2="1759.5" y2="1147.8" stroke="#006543" stroke-width="5"/>
<line x1="1822.5" y1="113.802" x2="1822.5" y2="1147.8" stroke="#006543" stroke-width="5"/>
<line x1="78" y1="136.302" x2="-4" y2="136.302" stroke="#006543" stroke-width="3"/>
<line x1="78" y1="172.302" x2="-4" y2="172.302" stroke="#006543" stroke-width="3"/>
<line x1="78" y1="209.302" x2="-4" y2="209.302" stroke="#006543" stroke-width="3"/>
<line x1="78" y1="245.302" x2="-4" y2="245.302" stroke="#006543" stroke-width="3"/>
<line x1="78" y1="282.302" x2="-4" y2="282.302" stroke="#006543" stroke-width="3"/>
<line x1="78" y1="318.302" x2="-4" y2="318.302" stroke="#006543" stroke-width="3"/>
<line x1="78" y1="355.302" x2="-4" y2="355.302" stroke="#006543" stroke-width="3"/>
<line x1="78" y1="391.302" x2="-4" y2="391.302" stroke="#006543" stroke-width="3"/>
<line x1="78" y1="428.302" x2="-4" y2="428.302" stroke="#006543" stroke-width="3"/>
<line x1="78" y1="464.302" x2="-4" y2="464.302" stroke="#006543" stroke-width="3"/>
<line x1="78" y1="501.302" x2="-4" y2="501.302" stroke="#006543" stroke-width="3"/>
<line x1="78" y1="537.302" x2="-4" y2="537.302" stroke="#006543" stroke-width="3"/>
<line x1="78" y1="574.302" x2="-4" y2="574.302" stroke="#006543" stroke-width="3"/>
<line x1="78" y1="610.302" x2="-4" y2="610.302" stroke="#006543" stroke-width="3"/>
<line x1="78" y1="647.302" x2="-4" y2="647.302" stroke="#006543" stroke-width="3"/>
<line x1="78" y1="683.302" x2="-4" y2="683.302" stroke="#006543" stroke-width="3"/>
<line x1="78" y1="720.302" x2="-4" y2="720.302" stroke="#006543" stroke-width="3"/>
<line x1="78" y1="756.302" x2="-4" y2="756.302" stroke="#006543" stroke-width="3"/>
<line x1="78" y1="793.302" x2="-4" y2="793.302" stroke="#006543" stroke-width="3"/>
<line x1="78" y1="829.302" x2="-4" y2="829.302" stroke="#006543" stroke-width="3"/>
<line x1="78" y1="866.302" x2="-4" y2="866.302" stroke="#006543" stroke-width="3"/>
<line x1="78" y1="902.302" x2="-4" y2="902.302" stroke="#006543" stroke-width="3"/>
<line x1="78" y1="939.302" x2="-4" y2="939.302" stroke="#006543" stroke-width="3"/>
<line x1="78" y1="975.302" x2="-4" y2="975.302" stroke="#006543" stroke-width="3"/>
<line x1="78" y1="1012.3" x2="-4" y2="1012.3" stroke="#006543" stroke-width="3"/>
<line x1="78" y1="1048.3" x2="-4" y2="1048.3" stroke="#006543" stroke-width="3"/>
<line x1="78" y1="1085.3" x2="-4" y2="1085.3" stroke="#006543" stroke-width="3"/>
<line x1="78" y1="1121.3" x2="-4" y2="1121.3" stroke="#006543" stroke-width="3"/>
<path d="M75.5 304.301C324.5 34.802 792.5 112.302 949.5 304.301" stroke="#006543" stroke-width="4"/>
<path d="M75.5 188.067C324.5 -81.4318 792.5 -3.93164 949.5 188.067" stroke="#006543" stroke-width="4"/>
<path d="M75.5 418.067C324.5 148.568 792.5 226.068 949.5 418.067" stroke="#006543" stroke-width="4"/>
<path d="M75.5 541.067C324.5 271.568 792.5 349.068 949.5 541.067" stroke="#006543" stroke-width="4"/>
<path d="M75.5 654.834C324.5 385.334 792.5 462.835 949.5 654.834" stroke="#006543" stroke-width="4"/>
<path d="M75.5 770.067C324.5 500.568 792.5 578.068 949.5 770.067" stroke="#006543" stroke-width="4"/>
<path d="M75.5 883.834C324.5 614.334 792.5 691.835 949.5 883.834" stroke="#006543" stroke-width="4"/>
<path d="M75.5 1006.83C324.5 737.334 792.5 814.835 949.5 1006.83" stroke="#006543" stroke-width="4"/>
<path d="M75.5 1120.6C324.5 851.101 792.5 928.601 949.5 1120.6" stroke="#006543" stroke-width="4"/>
<path d="M75.5 1233.07C324.5 963.568 792.5 1041.07 949.5 1233.07" stroke="#006543" stroke-width="4"/>
<path d="M950 187.302C1085.33 47.4688 1449 -148.298 1821 187.302M1821 306.802C1656.5 165.802 1142.8 147.602 950 306.802M1821 423.302C1641.5 351.802 1180 335.802 950 423.302M1821 540.802C1523 531.802 1301.5 526.802 950 540.802M1821 656.802C1644.5 711.302 1167 727.302 950 656.802M1821 775.302C1617 913.802 1113 897.802 950 775.302M1821 892.302C1698 1034.3 1224 1154.8 950 892.302M1821 1009.3C1654 1231.8 1160.5 1305.8 950 1009.3M1821 1125.8C1642.5 1361.8 1068.8 1323.8 950 1125.8" stroke="#006543" stroke-width="4"/>
<line x1="1821" y1="132.802" x2="1865" y2="132.802" stroke="#006543" stroke-width="4"/>
<line x1="1821" y1="243.802" x2="1865" y2="243.802" stroke="#006543" stroke-width="4"/>
<line x1="1821" y1="354.802" x2="1865" y2="354.802" stroke="#006543" stroke-width="4"/>
<line x1="1821" y1="465.802" x2="1865" y2="465.802" stroke="#006543" stroke-width="4"/>
<line x1="1821" y1="576.802" x2="1865" y2="576.802" stroke="#006543" stroke-width="4"/>
<line x1="1821" y1="687.802" x2="1865" y2="687.802" stroke="#006543" stroke-width="4"/>
<line x1="1821" y1="798.802" x2="1865" y2="798.802" stroke="#006543" stroke-width="4"/>
<line x1="1821" y1="909.802" x2="1865" y2="909.802" stroke="#006543" stroke-width="4"/>
<line x1="1821" y1="132.802" x2="1865" y2="132.802" stroke="#006543" stroke-width="4"/>
<line x1="1821" y1="243.802" x2="1865" y2="243.802" stroke="#006543" stroke-width="4"/>
<line x1="1821" y1="354.802" x2="1865" y2="354.802" stroke="#006543" stroke-width="4"/>
<line x1="1821" y1="465.802" x2="1865" y2="465.802" stroke="#006543" stroke-width="4"/>
<line x1="1821" y1="576.802" x2="1865" y2="576.802" stroke="#006543" stroke-width="4"/>
<line x1="1821" y1="687.802" x2="1865" y2="687.802" stroke="#006543" stroke-width="4"/>
<line x1="1821" y1="798.802" x2="1865" y2="798.802" stroke="#006543" stroke-width="4"/>
<line x1="1821" y1="909.802" x2="1865" y2="909.802" stroke="#006543" stroke-width="4"/>
<line x1="1821" y1="1020.8" x2="1865" y2="1020.8" stroke="#006543" stroke-width="4"/>
<line x1="1821" y1="1131.8" x2="1865" y2="1131.8" stroke="#006543" stroke-width="4"/>
<line x1="294.5" y1="1091.8" x2="294.5" y2="1152.8" stroke="#006543" stroke-width="3"/>
<line x1="404.5" y1="1065.8" x2="404.5" y2="1152.8" stroke="#006543" stroke-width="3"/>
<line x1="514.5" y1="1058.8" x2="514.5" y2="1148.8" stroke="#006543" stroke-width="3"/>
<line x1="624.5" y1="1068.8" x2="624.5" y2="1152.8" stroke="#006543" stroke-width="3"/>
<line x1="731.5" y1="1094.8" x2="731.5" y2="1152.8" stroke="#006543" stroke-width="3"/>
<line x1="299" y1="1089.3" x2="718" y2="1089.3" stroke="#006543" stroke-width="3"/>
<line x1="216" y1="1126.3" x2="808" y2="1126.3" stroke="#006543" stroke-width="3"/>
</svg>
