<svg width="743" height="1092" viewBox="0 0 743 1092" fill="none" xmlns="http://www.w3.org/2000/svg">
<rect x="3" y="1" width="76" height="76" stroke="#00469B" stroke-width="2"/>
<rect x="81" y="1" width="76" height="76" stroke="#00469B" stroke-width="2"/>
<rect x="159" y="1" width="76" height="76" stroke="#00469B" stroke-width="2"/>
<rect x="237" y="1" width="76" height="76" stroke="#00469B" stroke-width="2"/>
<rect x="315" y="1" width="76" height="76" stroke="#00469B" stroke-width="2"/>
<rect x="393" y="1" width="76" height="76" stroke="#00469B" stroke-width="2"/>
<rect x="471" y="1" width="76" height="76" stroke="#00469B" stroke-width="2"/>
<rect x="549" y="1" width="76" height="76" stroke="#00469B" stroke-width="2"/>
<rect x="627" y="1" width="76" height="76" stroke="#00469B" stroke-width="2"/>
<rect x="705" y="1" width="76" height="76" stroke="#00469B" stroke-width="2"/>
<rect x="3" y="79" width="76" height="76" stroke="#00469B" stroke-width="2"/>
<rect x="81" y="79" width="76" height="76" stroke="#00469B" stroke-width="2"/>
<rect x="159" y="79" width="76" height="76" stroke="#00469B" stroke-width="2"/>
<rect x="237" y="79" width="76" height="76" stroke="#00469B" stroke-width="2"/>
<rect x="315" y="79" width="76" height="76" stroke="#00469B" stroke-width="2"/>
<rect x="393" y="79" width="76" height="76" stroke="#00469B" stroke-width="2"/>
<rect x="471" y="79" width="76" height="76" stroke="#00469B" stroke-width="2"/>
<rect x="549" y="79" width="76" height="76" stroke="#00469B" stroke-width="2"/>
<rect x="627" y="79" width="76" height="76" stroke="#00469B" stroke-width="2"/>
<rect x="705" y="79" width="76" height="76" stroke="#00469B" stroke-width="2"/>
<rect x="3" y="157" width="76" height="76" stroke="#00469B" stroke-width="2"/>
<rect x="81" y="157" width="76" height="76" stroke="#00469B" stroke-width="2"/>
<rect x="159" y="157" width="76" height="76" stroke="#00469B" stroke-width="2"/>
<rect x="237" y="157" width="76" height="76" stroke="#00469B" stroke-width="2"/>
<rect x="315" y="157" width="76" height="76" stroke="#00469B" stroke-width="2"/>
<rect x="393" y="157" width="76" height="76" stroke="#00469B" stroke-width="2"/>
<rect x="471" y="157" width="76" height="76" stroke="#00469B" stroke-width="2"/>
<rect x="549" y="157" width="76" height="76" stroke="#00469B" stroke-width="2"/>
<rect x="627" y="157" width="76" height="76" stroke="#00469B" stroke-width="2"/>
<rect x="705" y="157" width="76" height="76" stroke="#00469B" stroke-width="2"/>
<rect x="3" y="235" width="76" height="76" stroke="#00469B" stroke-width="2"/>
<rect x="81" y="235" width="76" height="76" stroke="#00469B" stroke-width="2"/>
<rect x="159" y="235" width="76" height="76" stroke="#00469B" stroke-width="2"/>
<rect x="237" y="235" width="76" height="76" stroke="#00469B" stroke-width="2"/>
<rect x="315" y="235" width="76" height="76" stroke="#00469B" stroke-width="2"/>
<rect x="393" y="235" width="76" height="76" stroke="#00469B" stroke-width="2"/>
<rect x="471" y="235" width="76" height="76" stroke="#00469B" stroke-width="2"/>
<rect x="549" y="235" width="76" height="76" stroke="#00469B" stroke-width="2"/>
<rect x="627" y="235" width="76" height="76" stroke="#00469B" stroke-width="2"/>
<rect x="705" y="235" width="76" height="76" stroke="#00469B" stroke-width="2"/>
<rect x="3" y="313" width="76" height="76" stroke="#00469B" stroke-width="2"/>
<rect x="81" y="313" width="76" height="76" stroke="#00469B" stroke-width="2"/>
<rect x="159" y="313" width="76" height="76" stroke="#00469B" stroke-width="2"/>
<rect x="237" y="313" width="76" height="76" stroke="#00469B" stroke-width="2"/>
<rect x="315" y="313" width="76" height="76" stroke="#00469B" stroke-width="2"/>
<rect x="393" y="313" width="76" height="76" stroke="#00469B" stroke-width="2"/>
<rect x="471" y="313" width="76" height="76" stroke="#00469B" stroke-width="2"/>
<rect x="549" y="313" width="76" height="76" stroke="#00469B" stroke-width="2"/>
<rect x="627" y="313" width="76" height="76" stroke="#00469B" stroke-width="2"/>
<rect x="705" y="313" width="76" height="76" stroke="#00469B" stroke-width="2"/>
<rect x="3" y="391" width="76" height="76" stroke="#00469B" stroke-width="2"/>
<rect x="81" y="391" width="76" height="76" stroke="#00469B" stroke-width="2"/>
<rect x="159" y="391" width="76" height="76" stroke="#00469B" stroke-width="2"/>
<rect x="237" y="391" width="76" height="76" stroke="#00469B" stroke-width="2"/>
<rect x="315" y="391" width="76" height="76" stroke="#00469B" stroke-width="2"/>
<rect x="393" y="391" width="76" height="76" stroke="#00469B" stroke-width="2"/>
<rect x="471" y="391" width="76" height="76" stroke="#00469B" stroke-width="2"/>
<rect x="549" y="391" width="76" height="76" stroke="#00469B" stroke-width="2"/>
<rect x="627" y="391" width="76" height="76" stroke="#00469B" stroke-width="2"/>
<rect x="705" y="391" width="76" height="76" stroke="#00469B" stroke-width="2"/>
<rect x="3" y="469" width="76" height="76" stroke="#00469B" stroke-width="2"/>
<rect x="81" y="469" width="76" height="76" stroke="#00469B" stroke-width="2"/>
<rect x="159" y="469" width="76" height="76" stroke="#00469B" stroke-width="2"/>
<rect x="237" y="469" width="76" height="76" stroke="#00469B" stroke-width="2"/>
<rect x="315" y="469" width="76" height="76" stroke="#00469B" stroke-width="2"/>
<rect x="393" y="469" width="76" height="76" stroke="#00469B" stroke-width="2"/>
<rect x="471" y="469" width="76" height="76" stroke="#00469B" stroke-width="2"/>
<rect x="549" y="469" width="76" height="76" stroke="#00469B" stroke-width="2"/>
<rect x="627" y="469" width="76" height="76" stroke="#00469B" stroke-width="2"/>
<rect x="705" y="469" width="76" height="76" stroke="#00469B" stroke-width="2"/>
<rect x="3" y="547" width="76" height="76" stroke="#00469B" stroke-width="2"/>
<rect x="81" y="547" width="76" height="76" stroke="#00469B" stroke-width="2"/>
<rect x="159" y="547" width="76" height="76" stroke="#00469B" stroke-width="2"/>
<rect x="237" y="547" width="76" height="76" stroke="#00469B" stroke-width="2"/>
<rect x="315" y="547" width="76" height="76" stroke="#00469B" stroke-width="2"/>
<rect x="393" y="547" width="76" height="76" stroke="#00469B" stroke-width="2"/>
<rect x="471" y="547" width="76" height="76" stroke="#00469B" stroke-width="2"/>
<rect x="549" y="547" width="76" height="76" stroke="#00469B" stroke-width="2"/>
<rect x="627" y="547" width="76" height="76" stroke="#00469B" stroke-width="2"/>
<rect x="705" y="547" width="76" height="76" stroke="#00469B" stroke-width="2"/>
<rect x="3" y="625" width="76" height="76" stroke="#00469B" stroke-width="2"/>
<rect x="81" y="625" width="76" height="76" stroke="#00469B" stroke-width="2"/>
<rect x="159" y="625" width="76" height="76" stroke="#00469B" stroke-width="2"/>
<rect x="237" y="625" width="76" height="76" stroke="#00469B" stroke-width="2"/>
<rect x="315" y="625" width="76" height="76" stroke="#00469B" stroke-width="2"/>
<rect x="393" y="625" width="76" height="76" stroke="#00469B" stroke-width="2"/>
<rect x="471" y="625" width="76" height="76" stroke="#00469B" stroke-width="2"/>
<rect x="549" y="625" width="76" height="76" stroke="#00469B" stroke-width="2"/>
<rect x="627" y="625" width="76" height="76" stroke="#00469B" stroke-width="2"/>
<rect x="705" y="625" width="76" height="76" stroke="#00469B" stroke-width="2"/>
<rect x="3" y="703" width="76" height="76" stroke="#00469B" stroke-width="2"/>
<rect x="81" y="703" width="76" height="76" stroke="#00469B" stroke-width="2"/>
<rect x="159" y="703" width="76" height="76" stroke="#00469B" stroke-width="2"/>
<rect x="237" y="703" width="76" height="76" stroke="#00469B" stroke-width="2"/>
<rect x="315" y="703" width="76" height="76" stroke="#00469B" stroke-width="2"/>
<rect x="393" y="703" width="76" height="76" stroke="#00469B" stroke-width="2"/>
<rect x="471" y="703" width="76" height="76" stroke="#00469B" stroke-width="2"/>
<rect x="549" y="703" width="76" height="76" stroke="#00469B" stroke-width="2"/>
<rect x="627" y="703" width="76" height="76" stroke="#00469B" stroke-width="2"/>
<rect x="705" y="703" width="76" height="76" stroke="#00469B" stroke-width="2"/>
<rect x="3" y="781" width="76" height="76" stroke="#00469B" stroke-width="2"/>
<rect x="81" y="781" width="76" height="76" stroke="#00469B" stroke-width="2"/>
<rect x="159" y="781" width="76" height="76" stroke="#00469B" stroke-width="2"/>
<rect x="237" y="781" width="76" height="76" stroke="#00469B" stroke-width="2"/>
<rect x="315" y="781" width="76" height="76" stroke="#00469B" stroke-width="2"/>
<rect x="393" y="781" width="76" height="76" stroke="#00469B" stroke-width="2"/>
<rect x="471" y="781" width="76" height="76" stroke="#00469B" stroke-width="2"/>
<rect x="549" y="781" width="76" height="76" stroke="#00469B" stroke-width="2"/>
<rect x="627" y="781" width="76" height="76" stroke="#00469B" stroke-width="2"/>
<rect x="705" y="781" width="76" height="76" stroke="#00469B" stroke-width="2"/>
<rect x="3" y="859" width="76" height="76" stroke="#00469B" stroke-width="2"/>
<rect x="81" y="859" width="76" height="76" stroke="#00469B" stroke-width="2"/>
<rect x="159" y="859" width="76" height="76" stroke="#00469B" stroke-width="2"/>
<rect x="237" y="859" width="76" height="76" stroke="#00469B" stroke-width="2"/>
<rect x="315" y="859" width="76" height="76" stroke="#00469B" stroke-width="2"/>
<rect x="393" y="859" width="76" height="76" stroke="#00469B" stroke-width="2"/>
<rect x="471" y="859" width="76" height="76" stroke="#00469B" stroke-width="2"/>
<rect x="549" y="859" width="76" height="76" stroke="#00469B" stroke-width="2"/>
<rect x="627" y="859" width="76" height="76" stroke="#00469B" stroke-width="2"/>
<rect x="705" y="859" width="76" height="76" stroke="#00469B" stroke-width="2"/>
<rect x="3" y="937" width="76" height="76" stroke="#00469B" stroke-width="2"/>
<rect x="81" y="937" width="76" height="76" stroke="#00469B" stroke-width="2"/>
<rect x="159" y="937" width="76" height="76" stroke="#00469B" stroke-width="2"/>
<rect x="237" y="937" width="76" height="76" stroke="#00469B" stroke-width="2"/>
<rect x="315" y="937" width="76" height="76" stroke="#00469B" stroke-width="2"/>
<rect x="393" y="937" width="76" height="76" stroke="#00469B" stroke-width="2"/>
<rect x="471" y="937" width="76" height="76" stroke="#00469B" stroke-width="2"/>
<rect x="549" y="937" width="76" height="76" stroke="#00469B" stroke-width="2"/>
<rect x="627" y="937" width="76" height="76" stroke="#00469B" stroke-width="2"/>
<rect x="705" y="937" width="76" height="76" stroke="#00469B" stroke-width="2"/>
<rect x="3" y="1015" width="76" height="76" stroke="#00469B" stroke-width="2"/>
<rect x="81" y="1015" width="76" height="76" stroke="#00469B" stroke-width="2"/>
<rect x="159" y="1015" width="76" height="76" stroke="#00469B" stroke-width="2"/>
<rect x="237" y="1015" width="76" height="76" stroke="#00469B" stroke-width="2"/>
<rect x="315" y="1015" width="76" height="76" stroke="#00469B" stroke-width="2"/>
<rect x="393" y="1015" width="76" height="76" stroke="#00469B" stroke-width="2"/>
<rect x="471" y="1015" width="76" height="76" stroke="#00469B" stroke-width="2"/>
<rect x="549" y="1015" width="76" height="76" stroke="#00469B" stroke-width="2"/>
<rect x="627" y="1015" width="76" height="76" stroke="#00469B" stroke-width="2"/>
<rect x="705" y="1015" width="76" height="76" stroke="#00469B" stroke-width="2"/>
<line x1="2" x2="2" y2="1092" stroke="#00469B" stroke-width="4"/>
<rect x="518" y="7" width="80" height="1085" fill="black"/>
<path fill-rule="evenodd" clip-rule="evenodd" d="M532 401L584.758 401C584.459 415.313 572.763 426.823 558.379 426.823C543.995 426.823 532.299 415.313 532 401Z" fill="#00469B"/>
<path fill-rule="evenodd" clip-rule="evenodd" d="M532 451L584.758 451C584.459 465.313 572.763 476.823 558.379 476.823C543.995 476.823 532.299 465.313 532 451Z" fill="#00469B"/>
<path fill-rule="evenodd" clip-rule="evenodd" d="M532 351L584.758 351C584.459 365.313 572.763 376.823 558.379 376.823C543.995 376.823 532.299 365.313 532 351Z" fill="#00469B"/>
<path fill-rule="evenodd" clip-rule="evenodd" d="M584.758 921.824L532 921.824C532.299 907.512 543.995 896.001 558.379 896.001C572.763 896.001 584.459 907.512 584.758 921.824Z" fill="#00469B"/>
<path fill-rule="evenodd" clip-rule="evenodd" d="M532 922L584.758 922C584.459 936.313 572.763 947.823 558.379 947.823C543.995 947.823 532.299 936.313 532 922Z" fill="#00469B"/>
<path fill-rule="evenodd" clip-rule="evenodd" d="M532 846.001L584.758 846.001C584.459 860.314 572.763 871.824 558.379 871.824C543.995 871.824 532.299 860.314 532 846.001Z" fill="#00469B"/>
<path fill-rule="evenodd" clip-rule="evenodd" d="M584.758 143.823L532 143.823C532.299 129.511 543.995 118 558.379 118C572.763 118 584.459 129.511 584.758 143.823Z" fill="#00469B"/>
<path fill-rule="evenodd" clip-rule="evenodd" d="M532 84L584.758 84C584.459 98.3127 572.763 109.823 558.379 109.823C543.995 109.823 532.299 98.3127 532 84Z" fill="#00469B"/>
<path fill-rule="evenodd" clip-rule="evenodd" d="M2 982V83.0003C2.16665 83.0001 2.33331 83 2.5 83C250.752 83 452 284.248 452 532.5C452 780.752 250.752 982 2.5 982C2.33331 982 2.16665 982 2 982Z" fill="#00469B"/>
</svg>
