<svg width="154" height="47" viewBox="0 0 154 47" fill="none" xmlns="http://www.w3.org/2000/svg">
<path d="M10.5612 12.5816L19.96 18.2493L29.3656 12.5816V17.947L19.96 23.6217L15.2606 20.7949V37.8191L19.96 40.653L24.6392 37.8332L24.7135 32.06L19.96 34.929V29.4863L29.3656 23.8116V40.3576L19.96 46.0253L10.5612 40.3576V12.5816Z" fill="#4DC3FF" stroke="white" stroke-width="0.5" stroke-miterlimit="10" stroke-linecap="square"/>
<path d="M10.5612 12.5814L1 6.81526V34.5842L10.5612 40.3574V34.985L5.71972 32.0668V15.4153L10.5612 18.1437V12.5814Z" fill="#4DC3FF" stroke="white" stroke-width="0.5" stroke-miterlimit="10" stroke-linecap="square"/>
<path d="M29.3656 12.5814L38.92 6.81526V12.1876L36.7765 13.4815V30.5128L38.92 29.2189V34.5842L29.3656 40.3574V34.978L32.0703 33.3466V16.3224L29.3656 17.9468V12.5814Z" fill="#4DC3FF" stroke="white" stroke-width="0.5" stroke-miterlimit="10"/>
<path d="M20.1223 1L10.5611 6.76616L19.96 12.4339L29.3589 6.76616L20.1223 1Z" fill="#4DC3FF" stroke="white" stroke-width="0.5" stroke-miterlimit="10" stroke-linecap="square"/>
<path d="M49.03 32.3C47.67 32.3 46.65 32.18 45.97 31.94C45.31 31.68 44.84 31.23 44.56 30.59C44.3 29.93 44.17 28.95 44.17 27.65C44.17 26.49 44.31 25.58 44.59 24.92C44.89 24.26 45.36 23.79 46 23.51C46.66 23.21 47.56 23.06 48.7 23.06H53.62V22.07C53.62 21.45 53.53 20.99 53.35 20.69C53.19 20.39 52.88 20.18 52.42 20.06C51.98 19.94 51.31 19.88 50.41 19.88C49.17 19.88 47.47 20 45.31 20.24V17.48C46.89 17.28 48.74 17.18 50.86 17.18C52.72 17.18 54.15 17.32 55.15 17.6C56.17 17.88 56.9 18.36 57.34 19.04C57.78 19.72 58 20.71 58 22.01V32H53.71V30.68C53.37 31.26 52.91 31.67 52.33 31.91C51.75 32.17 50.65 32.3 49.03 32.3ZM50.74 29.57C51.62 29.57 52.25 29.54 52.63 29.48C52.91 29.44 53.1 29.38 53.2 29.3C53.32 29.22 53.42 29.09 53.5 28.91C53.58 28.77 53.62 28.56 53.62 28.28V25.46H50.62C49.94 25.46 49.46 25.51 49.18 25.61C48.9 25.69 48.71 25.87 48.61 26.15C48.51 26.41 48.46 26.88 48.46 27.56C48.46 28.22 48.51 28.68 48.61 28.94C48.71 29.2 48.9 29.37 49.18 29.45C49.48 29.53 50 29.57 50.74 29.57ZM61.8536 17.48H66.0236V20.03C66.0236 19.57 66.2136 19.12 66.5936 18.68C66.9736 18.24 67.4536 17.88 68.0336 17.6C68.6336 17.32 69.2236 17.18 69.8036 17.18H71.3636V20.81H69.8636C68.6236 20.81 67.7036 21 67.1036 21.38C66.5236 21.76 66.2336 22.39 66.2336 23.27V32H61.8536V17.48ZM80.8574 32.3C80.0974 32.3 79.4974 32.28 79.0574 32.24C78.6174 32.22 78.0774 32.17 77.4374 32.09C76.7974 32.01 76.2674 31.87 75.8474 31.67C75.4474 31.47 75.0274 31.17 74.5874 30.77C73.7674 30.09 73.3574 28.93 73.3574 27.29V22.46C73.3574 21.14 73.6574 20.04 74.2574 19.16C74.4774 18.84 74.7974 18.55 75.2174 18.29C75.6574 18.01 76.0974 17.79 76.5374 17.63C76.8974 17.51 77.3774 17.41 77.9774 17.33C78.5774 17.25 79.1074 17.2 79.5674 17.18H81.1574C82.2774 17.18 83.7474 17.36 85.5674 17.72V20.6C83.5074 20.12 81.9274 19.88 80.8274 19.88C78.8074 19.88 77.7974 20.56 77.7974 21.92V27.26C77.7974 28.8 78.9074 29.57 81.1274 29.57C82.2074 29.57 83.7574 29.35 85.7774 28.91V31.79C83.9574 32.13 82.3174 32.3 80.8574 32.3ZM88.2501 11H92.6301V19.25C92.9101 17.87 94.4401 17.18 97.2201 17.18C99.0801 17.18 100.38 17.52 101.12 18.2C101.88 18.86 102.26 19.91 102.26 21.35V32H97.8801V21.86C97.8801 21.3 97.8201 20.89 97.7001 20.63C97.6001 20.35 97.3901 20.16 97.0701 20.06C96.7501 19.94 96.2401 19.88 95.5401 19.88C94.6801 19.88 94.0501 19.93 93.6501 20.03C93.2501 20.13 92.9801 20.32 92.8401 20.6C92.7001 20.86 92.6301 21.28 92.6301 21.86V32H88.2501V11ZM106.212 12.23H110.592V15.77H106.212V12.23ZM106.212 17.48H110.592V32H106.212V17.48ZM121.639 32.3C120.879 32.3 120.279 32.28 119.839 32.24C119.399 32.22 118.859 32.17 118.219 32.09C117.579 32.01 117.049 31.87 116.629 31.67C116.229 31.47 115.809 31.17 115.369 30.77C114.549 30.09 114.139 28.93 114.139 27.29V22.46C114.139 21.14 114.439 20.04 115.039 19.16C115.259 18.84 115.579 18.55 115.999 18.29C116.439 18.01 116.879 17.79 117.319 17.63C117.679 17.51 118.159 17.41 118.759 17.33C119.359 17.25 119.889 17.2 120.349 17.18H121.939C123.059 17.18 124.529 17.36 126.349 17.72V20.6C124.289 20.12 122.709 19.88 121.609 19.88C119.589 19.88 118.579 20.56 118.579 21.92V27.26C118.579 28.8 119.689 29.57 121.909 29.57C122.989 29.57 124.539 29.35 126.559 28.91V31.79C124.739 32.13 123.099 32.3 121.639 32.3ZM134.911 38.6C132.551 38.6 130.801 38.53 129.661 38.39V35.45C131.541 35.71 133.291 35.84 134.911 35.84C136.391 35.84 137.451 35.6 138.091 35.12C138.731 34.64 139.051 33.84 139.051 32.72V30.38C138.691 30.9 138.341 31.3 138.001 31.58C137.661 31.84 137.211 32.02 136.651 32.12C136.111 32.24 135.361 32.3 134.401 32.3C132.981 32.3 131.851 32.17 131.011 31.91C130.171 31.63 129.561 31.18 129.181 30.56C128.801 29.92 128.611 29.04 128.611 27.92V22.25C128.611 20.91 128.781 19.88 129.121 19.16C129.481 18.44 130.081 17.93 130.921 17.63C131.781 17.33 133.011 17.18 134.611 17.18C135.651 17.18 136.451 17.24 137.011 17.36C137.551 17.48 137.961 17.66 138.241 17.9C138.521 18.14 138.841 18.55 139.201 19.13V17.48H143.431V32.78C143.431 34.84 142.721 36.32 141.301 37.22C139.901 38.14 137.771 38.6 134.911 38.6ZM135.961 29.57C136.821 29.57 137.461 29.51 137.881 29.39C138.321 29.27 138.621 29.08 138.781 28.82C138.961 28.54 139.051 28.15 139.051 27.65V21.8C139.051 21.26 138.971 20.86 138.811 20.6C138.651 20.32 138.341 20.13 137.881 20.03C137.421 19.93 136.701 19.88 135.721 19.88C134.921 19.88 134.331 19.94 133.951 20.06C133.571 20.18 133.311 20.39 133.171 20.69C133.051 20.97 132.991 21.39 132.991 21.95V27.5C132.991 28.12 133.051 28.57 133.171 28.85C133.311 29.11 133.581 29.3 133.981 29.42C134.381 29.52 135.041 29.57 135.961 29.57ZM147.403 12.23H151.783V15.77H147.403V12.23ZM147.403 17.48H151.783V32H147.403V17.48Z" fill="#4DC3FF"/>
</svg>
