<svg width="46" height="57" viewBox="0 0 46 57" fill="none" xmlns="http://www.w3.org/2000/svg">
<path d="M12.074 14.9534L22.96 21.8624L33.8539 14.9534V21.4938L22.96 28.4113L17.517 24.9654V45.7181L22.96 49.1726L28.3795 45.7353L28.4657 38.6977L22.96 42.195V35.5603L33.8539 28.6428V48.8126L22.96 55.7216L12.074 48.8126V14.9534Z" fill="#C29A5C" stroke="white" stroke-width="0.5" stroke-miterlimit="10" stroke-linecap="square"/>
<path d="M12.074 14.9534L1 7.92435V41.775L12.074 48.8126V42.2636L6.4665 38.7062V18.4079L12.074 21.7338V14.9534Z" fill="#C29A5C" stroke="white" stroke-width="0.5" stroke-miterlimit="10" stroke-linecap="square"/>
<path d="M33.8538 14.9534L44.92 7.92435V14.4733L42.4373 16.0506V36.8118L44.92 35.2346V41.775L33.8538 48.8126V42.255L36.9865 40.2663V19.5136L33.8538 21.4938V14.9534Z" fill="#C29A5C" stroke="white" stroke-width="0.5" stroke-miterlimit="10"/>
<path d="M23.148 0.835339L12.074 7.86434L22.96 14.7733L33.846 7.86434L23.148 0.835339Z" fill="#C29A5C" stroke="white" stroke-width="0.5" stroke-miterlimit="10" stroke-linecap="square"/>
</svg>
